<?xml version="1.0" encoding="UTF-8" standalone="no"?>
<!-- Created with Inkscape (http://www.inkscape.org/) -->

<svg
   xmlns:dc="http://purl.org/dc/elements/1.1/"
   xmlns:cc="http://creativecommons.org/ns#"
   xmlns:rdf="http://www.w3.org/1999/02/22-rdf-syntax-ns#"
   xmlns:svg="http://www.w3.org/2000/svg"
   xmlns="http://www.w3.org/2000/svg"
   xmlns:sodipodi="http://sodipodi.sourceforge.net/DTD/sodipodi-0.dtd"
   xmlns:inkscape="http://www.inkscape.org/namespaces/inkscape"
   width="32"
   height="32"
   viewBox="0 0 32 32.000001"
   id="svg2"
   version="1.1"
   inkscape:version="0.91 r13725"
   sodipodi:docname="plane-temp.svg">
  <defs
     id="defs4" />
  <sodipodi:namedview
     id="base"
     pagecolor="#ffffff"
     bordercolor="#666666"
     borderopacity="1.0"
     inkscape:pageopacity="0.0"
     inkscape:pageshadow="2"
     inkscape:zoom="11.2"
     inkscape:cx="10.732678"
     inkscape:cy="18.8286"
     inkscape:document-units="px"
     inkscape:current-layer="layer1"
     showgrid="true"
     inkscape:window-width="1366"
     inkscape:window-height="704"
     inkscape:window-x="0"
     inkscape:window-y="27"
     inkscape:window-maximized="1"
     units="px">
    <inkscape:grid
       type="xygrid"
       id="grid4136" />
  </sodipodi:namedview>
  <metadata
     id="metadata7">
    <rdf:RDF>
      <cc:Work
         rdf:about="">
        <dc:format>image/svg+xml</dc:format>
        <dc:type
           rdf:resource="http://purl.org/dc/dcmitype/StillImage" />
        <dc:title></dc:title>
      </cc:Work>
    </rdf:RDF>
  </metadata>
  <g
     inkscape:label="Layer 1"
     inkscape:groupmode="layer"
     id="layer1"
     transform="translate(0,-1020.3622)">
    <path
       style="fill:#00aa44;fill-opacity:1;fill-rule:evenodd;stroke:#00aa44;stroke-width:0.67622811;stroke-linecap:butt;stroke-linejoin:round;stroke-miterlimit:4;stroke-dasharray:none;stroke-opacity:1"
       d="m 15.769709,1034.2459 c -3.4549,0.091 -10.8252002,1.1034 -10.8252002,1.1034 l -4.60639995,-2.0259 1.84259995,3.0389 -1.84259995,3.0389 4.60639995,-2.0259 c 0,0 7.3703002,1.0129 10.8252002,1.0129 2.5149,0 -1.6122,10.6361 -1.6122,10.6361 l 9.2128,-10.6361 c 0,0 5.1464,0.1831 7.3704,-1.0129 0.3902,-0.2098 0.9212,-0.5355 0.9212,-1.013 0,-0.4775 -0.531,-0.8032 -0.9212,-1.013 -2.224,-1.196 -7.3704,-1.0129 -7.3704,-1.0129 l -9.2128,-10.6361 c 0,0 4.0996,10.4805 1.6122,10.5456 z"
       id="path4142"
       inkscape:connector-curvature="0"
       sodipodi:nodetypes="scccccsccaaaccs" />
  </g>
</svg>
